<svg height="496pt" viewBox="0 0 496 495" width="496pt" xmlns="http://www.w3.org/2000/svg"><path d="m136 40.5h112v32h-112zm0 0" fill="#f0bc5e"/><path d="m32 144.5h120v64h-120zm0 0" fill="#f0bc5e"/><path d="m406.785156 380.261719-13.570312 8.476562 32.351562 51.761719h-29.566406l-19 25.328125-34.007812-61.207031-13.984376 7.757812 45.992188 82.792969 29-38.671875h50.433594zm0 0"/><path d="m108.6875.5-108.6875 108.6875v339.3125h206.566406l-5 8h50.433594l29 38.671875 45.992188-82.792969-13.984376-7.765625-34.007812 61.207031-19-25.320312h-29.566406l32.351562-51.761719-13.570312-8.484375-32.648438 52.246094h-200.566406v-312h104v-104h264v88h16v-104zm-81.375 104 76.6875-76.6875v76.6875zm0 0"/><path d="m136 32.5h232v16h-232zm0 0"/><path d="m136 64.5h112v16h-112zm0 0"/><path d="m208 416.5h-176v-144h144v16h-128v112h144v-72h16zm0 0"/><path d="m64 304.5h96v16h-96zm0 0"/><path d="m64 336.5h112v16h-112zm0 0"/><path d="m112 368.5h16v16h-16zm0 0"/><path d="m160 368.5h16v16h-16zm0 0"/><path d="m64 368.5h16v16h-16zm0 0"/><path d="m32 136.5h120v16h-120zm0 0"/><path d="m32 168.5h120v16h-120zm0 0"/><path d="m496 248.5c0-11.550781-4.078125-22.414062-11.574219-31.113281 3.597657-10.902344 3.207031-22.496094-1.210937-33.175781-4.414063-10.679688-12.34375-19.160157-22.605469-24.3125-.832031-11.453126-5.632813-22.015626-13.808594-30.191407-8.175781-8.167969-18.746093-12.96875-30.191406-13.808593-5.160156-10.261719-13.632813-18.183594-24.3125-22.605469-10.695313-4.425781-22.273437-4.800781-33.175781-1.207031-8.707032-7.507813-19.570313-11.585938-31.121094-11.585938s-22.414062 4.078125-31.113281 11.574219c-10.910157-3.582031-22.488281-3.207031-33.175781 1.210937-10.679688 4.421875-19.160157 12.34375-24.3125 22.605469-11.453126.832031-22.015626 5.632813-30.191407 13.808594-8.167969 8.175781-12.96875 18.746093-13.808593 30.191406-10.261719 5.160156-18.183594 13.632813-22.605469 24.3125-4.425781 10.679687-4.816407 22.273437-1.207031 33.175781-7.507813 8.707032-11.585938 19.570313-11.585938 31.121094s4.078125 22.414062 11.574219 31.113281c-3.597657 10.902344-3.207031 22.496094 1.210937 33.175781 4.414063 10.679688 12.34375 19.160157 22.605469 24.3125.832031 11.453126 5.632813 22.015626 13.808594 30.191407 8.175781 8.167969 18.746093 12.96875 30.191406 13.808593 5.160156 10.261719 13.632813 18.183594 24.3125 22.605469 10.695313 4.425781 22.265625 4.800781 33.175781 1.207031 8.707032 7.507813 19.570313 11.585938 31.121094 11.585938s22.414062-4.078125 31.113281-11.574219c10.902344 3.582031 22.488281 3.207031 33.175781-1.210937 10.679688-4.421875 19.160157-12.34375 24.3125-22.605469 11.453126-.832031 22.015626-5.632813 30.191407-13.808594 8.167969-8.175781 12.96875-18.746093 13.808593-30.191406 10.261719-5.160156 18.183594-13.632813 22.605469-24.3125 4.425781-10.679687 4.816407-22.273437 1.207031-33.175781 7.507813-8.707032 11.585938-19.570313 11.585938-31.121094zm-168 120c-66.273438 0-120-53.726562-120-120s53.726562-120 120-120 120 53.726562 120 120-53.726562 120-120 120zm0 0" fill="#f0bc5e"/><path d="m382.121094 234.378906c-5.21875-5.214844-10.890625-9.214844-16.609375-12.183594 1.59375-4.375 2.488281-9 2.488281-13.695312 0-12.222656-5.632812-23.046875-14.296875-30.390625l11.953125-11.953125-11.3125-11.3125-15.375 15.375c-3.511719-1.007812-7.136719-1.71875-10.96875-1.71875s-7.457031.710938-10.96875 1.71875l-15.375-15.375-11.3125 11.3125 11.953125 11.953125c-8.664063 7.34375-14.296875 18.167969-14.296875 30.390625 0 4.695312.894531 9.320312 2.496094 13.695312-5.726563 2.96875-11.390625 6.96875-16.609375 12.183594-18.550781 18.554688-23.375 42.808594-10.976563 55.210938 4.648438 4.636718 10.945313 6.863281 17.984375 6.863281 2.457031 0 5.007813-.335937 7.601563-.863281 2.335937 19.871094 14.3125 37.253906 32.550781 46.375l6.953125 3.480468 6.960938-3.480468c18.238281-9.121094 30.214843-26.503906 32.550781-46.375 2.59375.535156 5.144531.863281 7.601562.863281 7.039063 0 13.34375-2.226563 17.992188-6.863281 12.390625-12.402344 7.566406-36.648438-10.984375-55.210938zm-78.121094-25.878906c0-13.230469 10.769531-24 24-24s24 10.769531 24 24c0 2.96875-.734375 5.839844-1.792969 8.585938-8.621093-1.265626-16.488281.460937-22.207031 5.511718-5.71875-5.058594-13.585938-6.785156-22.207031-5.523437-1.058594-2.742188-1.792969-5.605469-1.792969-8.574219zm-29.785156 69.785156c-5.09375-5.105468-1.488282-20.121094 10.976562-32.585937 8.824219-8.824219 18.929688-13.207031 25.886719-13.207031 2.875 0 5.210937.742187 6.699219 2.230468 2.292968 2.304688 2.839844 6.707032 1.503906 12.082032-1.695312 6.808593-6.25 14.28125-12.472656 20.503906-12.464844 12.457031-27.472656 16.085937-32.59375 10.976562zm53.785156 49.269532c-14.503906-7.34375-23.558594-21.847657-23.929688-38.046876 4.851563-2.816406 9.609376-6.457031 14.050782-10.886718 3.871094-3.875 7.160156-8.105469 9.878906-12.480469 2.71875 4.375 6.007812 8.605469 9.878906 12.480469 4.441406 4.4375 9.199219 8.070312 14.050782 10.894531-.371094 16.191406-9.425782 30.703125-23.929688 38.039063zm53.785156-49.269532c-5.089844 5.085938-20.121094 1.496094-32.585937-10.976562-6.222657-6.222656-10.773438-13.695313-12.472657-20.503906-1.34375-5.375-.796874-9.785157 1.503907-12.082032 1.488281-1.488281 3.824219-2.230468 6.699219-2.230468 6.957031 0 17.0625 4.382812 25.886718 13.207031 12.457032 12.464843 16.0625 27.480469 10.96875 32.585937zm0 0"/><path d="m328 376.5c-70.574219 0-128-57.425781-128-128s57.425781-128 128-128 128 57.425781 128 128-57.425781 128-128 128zm0-240c-61.761719 0-112 50.238281-112 112s50.238281 112 112 112 112-50.238281 112-112-50.238281-112-112-112zm0 0"/><path d="m32 200.5h120v16h-120zm0 0"/></svg>