<svg height="496pt" viewBox="0 0 496 496" width="496pt" xmlns="http://www.w3.org/2000/svg"><g fill="#f0bc5e"><path d="m129.6875 224.519531c-4.96875 9.207031-12.597656 16.9375-22.3125 21.792969l-3.375 1.6875-3.375-1.6875c-9.90625-4.953125-17.632812-12.871094-22.59375-22.3125h-78.03125v8c0 66.167969 53.832031 120 120 120h120v-8c0-62.945312-48.121094-114.511719-110.3125-119.480469zm0 0"/><path d="m128 0h-120v8c0 41.71875 21.167969 79.816406 56.609375 101.902344l8.421875 2.410156c3.464844-13.945312 15.960938-24.3125 30.96875-24.3125 17.671875 0 32 14.328125 32 32 0 2.777344-.464844 5.433594-1.128906 8h113.128906v-8c0-66.167969-53.832031-120-120-120zm0 0"/><path d="m368 128h-120v-8c0-66.167969 53.832031-120 120-120h120v8c0 66.167969-53.832031 120-120 120zm0 0"/><path d="m376 296h-120v-8c0-66.167969 53.832031-120 120-120h120v8c0 66.167969-53.832031 120-120 120zm0 0"/></g><path d="m440 384h-168v-93.566406c25.617188-40.410156 91.160156-66.433594 168-66.433594v-16c-72.441406 0-134.070312 21.3125-168 56.742188v-136.742188h-16v256h-16v-256h-16v192.742188c-33.929688-35.429688-95.558594-56.742188-168-56.742188v16c76.839844 0 142.382812 26.023438 168 66.433594v37.566406h-176c-26.472656 0-48 25.128906-48 56s21.527344 56 48 56h392c30.878906 0 56-25.128906 56-56s-25.121094-56-56-56zm-424 56c0-22.054688 14.351562-40 32-40s32 17.945312 32 40-14.351562 40-32 40-32-17.945312-32-40zm424 40h-358.472656c8.914062-10.175781 14.472656-24.335938 14.472656-40s-5.558594-29.824219-14.472656-40h358.472656c22.054688 0 40 17.945312 40 40s-17.945312 40-40 40zm0 0"/><path d="m184 416h16v16h-16zm0 0"/><path d="m112 416h56v16h-56zm0 0"/><path d="m200 448h88v16h-88zm0 0"/><path d="m248 416h80v16h-80zm0 0"/><path d="m432 448h16v16h-16zm0 0"/><path d="m352 448h64v16h-64zm0 0"/><path d="m56.886719 207.960938c2.457031 0 5.007812-.335938 7.601562-.863282 2.335938 19.871094 14.3125 37.253906 32.550781 46.375l6.960938 3.472656 6.960938-3.480468c18.238281-9.121094 30.214843-26.503906 32.550781-46.375 2.59375.535156 5.144531.863281 7.601562.863281 7.039063 0 13.34375-2.226563 17.992188-6.863281 12.398437-12.410156 7.582031-36.65625-10.976563-55.210938-5.21875-5.214844-10.882812-9.222656-16.609375-12.191406 1.585938-4.367188 2.480469-8.992188 2.480469-13.6875 0-10.96875-4.449219-20.910156-11.625-28.144531l10.28125-15.414063-13.3125-8.875-10.289062 15.433594c-4.65625-1.902344-9.726563-3-15.054688-3s-10.398438 1.097656-15.054688 2.992188l-10.289062-15.433594-13.3125 8.875 10.28125 15.414062c-7.175781 7.242188-11.625 17.183594-11.625 28.152344 0 4.695312.894531 9.320312 2.496094 13.695312-5.726563 2.96875-11.390625 6.96875-16.609375 12.183594-18.558594 18.554688-23.375 42.808594-10.976563 55.210938 4.640625 4.644531 10.9375 6.871094 17.976563 6.871094zm47.113281 31.09375c-14.503906-7.34375-23.558594-21.847657-23.929688-38.046876 4.851563-2.816406 9.609376-6.457031 14.050782-10.886718 3.871094-3.875 7.160156-8.105469 9.878906-12.480469 2.71875 4.375 6.007812 8.605469 9.878906 12.480469 4.441406 4.4375 9.199219 8.070312 14.050782 10.894531-.371094 16.191406-9.425782 30.703125-23.929688 38.039063zm53.785156-49.269532c-5.089844 5.078125-20.121094 1.488282-32.585937-10.976562-6.222657-6.222656-10.773438-13.695313-12.472657-20.496094-1.34375-5.382812-.796874-9.792969 1.503907-12.089844 1.488281-1.488281 3.824219-2.230468 6.699219-2.230468 6.957031 0 17.0625 4.390624 25.886718 13.207031 12.457032 12.457031 16.0625 27.480469 10.96875 32.585937zm-77.785156-69.785156c0-13.230469 10.769531-24 24-24s24 10.769531 24 24c0 2.976562-.734375 5.839844-1.792969 8.574219-8.621093-1.261719-16.488281.472656-22.207031 5.523437-5.71875-5.050781-13.585938-6.777344-22.207031-5.511718-1.058594-2.746094-1.792969-5.609376-1.792969-8.585938zm-18.808594 37.191406c8.824219-8.832031 18.929688-13.207031 25.886719-13.207031 2.875 0 5.210937.75 6.699219 2.230469 2.292968 2.296875 2.839844 6.707031 1.503906 12.089844-1.695312 6.808593-6.25 14.269531-12.472656 20.496093-12.457032 12.464844-27.472656 16.09375-32.585938 10.976563-5.101562-5.097656-1.496094-20.121094 10.96875-32.585938zm0 0"/><path d="m256 122.433594c25.617188-40.410156 91.160156-66.433594 168-66.433594v-16c-78.535156 0-144.425781 25.023438-176 65.96875-31.574219-40.945312-97.464844-65.96875-176-65.96875v16c76.839844 0 142.382812 26.023438 168 66.433594v5.566406h16zm0 0"/></svg>