<svg id="Layer_5" enable-background="new 0 0 64 64" height="512" viewBox="0 0 64 64" width="512" xmlns="http://www.w3.org/2000/svg"><path clip-rule="evenodd" d="m40 19h10v4h-10z" fill="#f0bc5e" fill-rule="evenodd"/><path clip-rule="evenodd" d="m14 19h10v4h-10z" fill="#f0bc5e" fill-rule="evenodd"/><path d="m45 26c-.552 0-1 .448-1 1s.448 1 1 1 1-.448 1-1-.448-1-1-1z"/><circle cx="45" cy="33" r="1"/><path d="m48 42.427v-5.239c1.79-1.039 3-2.973 3-5.188v-22h-2v22c0 2.206-1.794 4-4 4s-4-1.794-4-4v-22h-2v22c0 2.215 1.21 4.149 3 5.189v5.238c-4.61 1.31-8 5.549-8 10.574v5c0 2.757 2.243 5 5 5h1v-8c0-.551.449-1 1-1s1 .449 1 1v8h6v-8c0-.551.449-1 1-1s1 .449 1 1v8h1c2.757 0 5-2.243 5-5v-5c0-5.025-3.39-9.264-8-10.574zm-4-4.517c.326.055.658.09 1 .09s.674-.035 1-.09v4.141c-.33-.03-.662-.051-1-.051-.337 0-.67.021-1 .051zm10 20.09c0 1.304-.836 2.416-2 2.829v-5.829c0-1.654-1.346-3-3-3s-3 1.346-3 3v6h-2v-6c0-1.654-1.346-3-3-3s-3 1.346-3 3v5.829c-1.164-.413-2-1.525-2-2.829v-5c0-4.962 4.038-9 9-9s9 4.038 9 9z"/><circle cx="19" cy="33" r="1"/><path d="m22 42.388v-5.2c1.79-1.039 3-2.973 3-5.188v-22h-2v22c0 2.206-1.794 4-4 4s-4-1.794-4-4v-22h-2v22c0 2.215 1.21 4.149 3 5.189v5.199c-4.61 1.191-8 5.044-8 9.612 0 6.58 4.42 11 11 11s11-4.42 11-11c0-4.568-3.39-8.421-8-9.612zm-4-4.478c.326.055.658.09 1 .09s.674-.035 1-.09v4.136c-.33-.027-.662-.046-1-.046-.337 0-.67.019-1 .046zm1 23.09c-5.467 0-9-3.533-9-9 0-4.411 4.038-8 9-8s9 3.589 9 8c0 5.467-3.533 9-9 9z"/><path d="m19 46c-3.441 0-7 2.244-7 6 0 4.596 3.521 7 7 7s7-2.404 7-7c0-3.756-3.559-6-7-6zm0 11c-2.489 0-5-1.546-5-5 0-2.471 2.595-4 5-4s5 1.529 5 4c0 3.454-2.511 5-5 5z"/><path d="m45 15.1-.416-.19c-.31-.142-7.584-3.53-7.584-8.91 0-2.415 1.768-5 4.4-5 1.523 0 2.821.888 3.6 1.578.779-.69 2.077-1.578 3.6-1.578 2.632 0 4.4 2.585 4.4 5 0 5.38-7.274 8.768-7.584 8.91z" fill="#f0bc5e"/><path d="m19 15.1-.416-.19c-.31-.142-7.584-3.53-7.584-8.91 0-2.415 1.768-5 4.4-5 1.523 0 2.821.888 3.6 1.578.779-.69 2.077-1.578 3.6-1.578 2.632 0 4.4 2.585 4.4 5 0 5.38-7.274 8.768-7.584 8.91z" fill="#f0bc5e"/><path d="m19 26c-.552 0-1 .448-1 1s.448 1 1 1 1-.448 1-1-.448-1-1-1z"/></svg>