<svg height="496pt" viewBox="-32 0 496 496" width="496pt" xmlns="http://www.w3.org/2000/svg"><g fill="#f0bc5e"><path d="m16.839844 456 18.214844 40h361.890624l18.207032-40zm0 0"/><path d="m200 80c-13.230469 0-24 10.769531-24 24v128c0 13.230469 10.769531 24 24 24h16v-176zm0 0"/><path d="m144 296v16c0 13.230469 10.769531 24 24 24h96c13.230469 0 24-10.769531 24-24v-16zm0 0"/><path d="m144 376v16c0 13.230469 10.769531 24 24 24h96c13.230469 0 24-10.769531 24-24v-16zm0 0"/></g><path d="m408 0h-384c-13.230469 0-24 10.769531-24 24v416c0 13.230469 10.769531 24 24 24h384c13.230469 0 24-10.769531 24-24v-416c0-13.230469-10.769531-24-24-24zm-384 16h384c4.40625 0 8 3.585938 8 8v8h-400v-8c0-4.414062 3.59375-8 8-8zm184 272h-192v-240h192zm208 16v64h-400v-64zm-40-16h-40v-48h-24v-32h64zm-56-32v32h-64v-32zm72 32v-96h-96v48h-56v48h-16v-112h192v112zm-136-160c0-14.3125 9.503906-26.3125 22.480469-30.390625.984375 4.6875 1.519531 9.496094 1.519531 14.390625h16c0-5.167969-.519531-10.246094-1.40625-15.222656 5.757812 1.222656 10.957031 4.101562 15.277344 8.253906-3.742188 6.824219-5.871094 14.65625-5.871094 22.96875 0 12.304688 4.6875 23.496094 12.320312 32h-28.320312c-17.648438 0-32-14.351562-32-32zm88-16h16c0-5.191406-.519531-10.304688-1.425781-15.304688 14.496093 3.039063 25.425781 15.914063 25.425781 31.304688 0 17.648438-14.351562 32-32 32s-32-14.351562-32-32c0-14.3125 9.503906-26.3125 22.480469-30.390625.984375 4.6875 1.519531 9.496094 1.519531 14.390625zm43.679688 48c7.632812-8.503906 12.320312-19.695312 12.320312-32 0-25.855469-20.558594-46.945312-46.183594-47.910156-4.230468-10.488282-10.542968-20.128906-18.785156-28.371094l-1.367188-1.375-11.328124 11.296875 1.375 1.382813c5.695312 5.695312 10.199218 12.242187 13.5625 19.304687-6.503907 2.105469-12.378907 5.574219-17.34375 10.054687-8.289063-7.519531-18.800782-11.855468-30.113282-12.277343-4.230468-10.496094-10.542968-20.136719-18.785156-28.378907l-1.367188-1.375-11.328124 11.296876 1.375 1.382812c5.695312 5.695312 10.199218 12.242188 13.5625 19.304688-19.28125 6.230468-33.273438 24.335937-33.273438 45.664062 0 12.304688 4.6875 23.496094 12.320312 32h-28.320312v-112h192v112zm20.320312 288h-384c-4.40625 0-8-3.585938-8-8v-56h400v56c0 4.414062-3.59375 8-8 8zm0 0"/></svg>