<?xml version="1.0" encoding="iso-8859-1"?>
<!-- Generator: Adobe Illustrator 19.0.0, SVG Export Plug-In . SVG Version: 6.00 Build 0)  -->
<svg version="1.1" id="Capa_1" xmlns="http://www.w3.org/2000/svg" xmlns:xlink="http://www.w3.org/1999/xlink" x="0px" y="0px"
	 viewBox="0 0 496 496" style="enable-background:new 0 0 496 496;" xml:space="preserve">
<g>
	<path style="fill:#FFA64D;" d="M224,464c0,13.256,10.744,24,24,24c13.256,0,24-10.744,24-24V264h-48V464z"/>
	<path style="fill:#FFA64D;" d="M384,248v216c0,13.256,10.744,24,24,24s24-10.744,24-24V248H384z"/>
	<path style="fill:#FFA64D;" d="M64,464c0,13.256,10.744,24,24,24s24-10.744,24-24V264H64V464z"/>
</g>
<g>
	<path style="fill:#333333;" d="M280,23.944C280,10.744,269.256,0,256.056,0c-7.896,0-15.296,3.896-19.784,10.432
		C225.368,26.36,200,69.704,200,128c0,49.488,7.408,80.608,12.4,96H200v24c0,10.416,6.712,19.216,16,22.528V464
		c0,17.648,14.352,32,32,32s32-14.352,32-32V270.528c9.288-3.312,16-12.112,16-22.528v-24h-16V23.944z M216,128
		c0-53.824,23.416-93.832,33.472-108.52c1.496-2.176,3.96-3.48,6.584-3.48c4.384,0,7.944,3.56,7.944,7.944V224h-34.64
		C225.352,213.224,216,182.304,216,128z M264,464c0,8.816-7.184,16-16,16c-8.824,0-16-7.184-16-16V272h32V464z M280,248
		c0,4.416-3.584,8-8,8h-48c-4.416,0-8-3.584-8-8v-8h64V248z"/>
	<path style="fill:#333333;" d="M120.88,5.568L113.792,151.6C113.032,165.28,101.704,176,88,176s-25.032-10.72-25.784-24.344
		L55.12,5.568L42.344,18.344C15.04,45.648,0,81.952,0,120.568v14.856c0,37.448,14.248,72.64,40,99.64V248
		c0,10.416,6.712,19.216,16,22.528V464c0,17.648,14.352,32,32,32s32-14.352,32-32V270.528c9.288-3.312,16-12.112,16-22.528v-12.928
		c25.752-27,40-62.2,40-99.64v-14.856c0-38.616-15.04-74.92-42.344-102.224L120.88,5.568z M104,464c0,8.816-7.184,16-16,16
		c-8.824,0-16-7.184-16-16V272h32V464z M120,248c0,4.416-3.584,8-8,8H64c-4.416,0-8-3.584-8-8v-8h64V248z M160,120.568v14.856
		c0,33.28-12.656,64.568-35.528,88.568H51.528c-22.872-24-35.528-55.28-35.528-88.56v-14.856c0-27.8,8.768-54.248,24.984-76.2
		l5.256,108.112C47.464,174.648,65.808,192,88,192s40.536-17.352,41.768-39.56l5.248-108.072C151.232,66.32,160,92.776,160,120.568z
		"/>
	<path style="fill:#333333;" d="M472,0c-13.232,0-24,10.768-24,24v104c0,4.416-3.584,8-8,8s-8-3.584-8-8V24
		c0-13.232-10.768-24-24-24s-24,10.768-24,24v104c0,4.416-3.584,8-8,8s-8-3.584-8-8V24c0-13.232-10.768-24-24-24s-24,10.768-24,24
		v121.352c0,29.976,15.288,58.128,40,74.816V232c0,10.416,6.712,19.216,16,22.528V464c0,17.648,14.352,32,32,32s32-14.352,32-32
		V254.528c9.288-3.312,16-12.112,16-22.528v-11.832c24.712-16.68,40-44.84,40-74.816V24C496,10.768,485.232,0,472,0z M424,464
		c0,8.816-7.184,16-16,16c-8.824,0-16-7.184-16-16V256h32V464z M440,232c0,4.416-3.584,8-8,8h-48c-4.416,0-8-3.584-8-8v-8h64V232z
		 M480,145.352c0,25.304-13.2,49.072-34.472,62.648h-75.056C349.2,194.424,336,170.656,336,145.352V24c0-4.416,3.584-8,8-8
		s8,3.584,8,8v104c0,13.232,10.768,24,24,24s24-10.768,24-24V24c0-4.416,3.584-8,8-8s8,3.584,8,8v104c0,13.232,10.768,24,24,24
		s24-10.768,24-24V24c0-4.416,3.584-8,8-8s8,3.584,8,8V145.352z"/>
</g>
<g>
</g>
<g>
</g>
<g>
</g>
<g>
</g>
<g>
</g>
<g>
</g>
<g>
</g>
<g>
</g>
<g>
</g>
<g>
</g>
<g>
</g>
<g>
</g>
<g>
</g>
<g>
</g>
<g>
</g>
</svg>
