<svg height="496pt" viewBox="-32 0 496 496.944" width="496pt" xmlns="http://www.w3.org/2000/svg"><g fill="#f0bc5e"><path d="m352.472656 449.167969v-34.335938l24-12 24 12v34.335938l-24 12zm0 0"/><path d="m256.472656 449.167969v-34.335938l24-12 24 12v34.335938l-24 12zm0 0"/><path d="m304.472656 361.167969v-34.359375l23.984375-11.976563 24.015625 12v34.335938l-24 12zm0 0"/><path d="m306.632812 185.839844c3.839844 14.71875 5.839844 29.921875 5.839844 45.28125 0 16.480468-2.320312 32.957031-6.800781 48.800781l-6.558594 22.71875-18.640625 9.359375v64l-48 24v24h-151.839844c-14.320312 0-26.878906-9.441406-30.800781-23.199219l-34.558593-120.878906c-4.480469-15.84375-6.800782-32.320313-6.800782-48.800781 0-15.359375 2-30.5625 5.839844-45.28125 22.078125 4.238281 29.039062 14.160156 62.160156 14.160156 35.839844 0 41.039063-11.679688 68-15.039062v47.039062c-17.679687 0-32 14.320312-32 32-8.800781 0-16 7.199219-16 16 0 4.398438 1.757813 8.398438 4.71875 11.28125 2.878906 2.957031 6.878906 4.71875 11.28125 4.71875-8.800781 0-16 7.199219-16 16 0 4.398438 1.757813 8.398438 4.71875 11.28125 2.878906 2.957031 6.878906 4.71875 11.28125 4.71875 0 17.679688 14.320313 32 32 32h32c17.679688 0 32-14.320312 32-32 8.800782 0 16-7.199219 16-16 0-4.398438-1.761718-8.398438-4.71875-11.28125-2.882812-2.957031-6.882812-4.71875-11.28125-4.71875 8.800782 0 16-7.199219 16-16 0-4.398438-1.761718-8.398438-4.71875-11.28125-2.882812-2.957031-6.882812-4.71875-11.28125-4.71875 0-17.679688-14.320312-32-32-32v-47.039062c26.878906 3.359374 32.160156 15.039062 68 15.039062 33.039063 0 40.078125-9.921875 62.160156-14.160156zm0 0"/></g><path d="m384.472656 371.054688v-64l-56-28-16.640625 8.320312 1.503907-5.269531c4.734374-16.578125 7.136718-33.722657 7.136718-50.960938 0-32.234375-8.457031-64.054687-24.449218-92.039062l-7.550782-13.234375v-13.871094h8c13.230469 0 24-10.769531 24-24v-16c0-13.230469-10.769531-24-24-24h-112v-24c0-13.230469-10.769531-24-24-24-13.234375 0-24 10.769531-24 24v24h-112c-13.234375 0-24 10.769531-24 24v16c0 13.230469 10.765625 24 24 24h8v13.871094l-7.550781 13.226562c-15.992187 27.992188-24.449219 59.804688-24.449219 92.046875 0 17.238281 2.398438 34.390625 7.136719 50.960938l34.535156 120.886719c4.886719 17.078124 20.703125 29.007812 38.472657 29.007812h159.855468v-27.054688l40-20 40 20v54.109376l-40 20-40-20v-11.023438h-16v20.914062l56 28 48-24 48 24 56-28v-73.890624zm-232-347.054688c0-4.414062 3.582032-8 8-8 4.414063 0 8 3.585938 8 8v24h-16zm72 371.054688v20.945312h-143.855468c-10.65625 0-20.152344-7.160156-23.082032-17.40625l-34.535156-120.882812c-4.335938-15.152344-6.527344-30.816407-6.527344-46.566407 0-29.457031 7.726563-58.527343 22.335938-84.105469l9.664062-16.910156v-18.128906h72v-16h-96c-4.417968 0-8-3.585938-8-8v-16c0-4.414062 3.582032-8 8-8h272c4.414063 0 8 3.585938 8 8v16c0 4.414062-3.585937 8-8 8h-160v128.808594c-16.058594 3.269531-28.542968 16.222656-31.320312 32.457031-9.640625 3.109375-16.679688 12.070313-16.679688 22.734375 0 6.167969 2.40625 11.742188 6.238282 16-3.839844 4.257812-6.238282 9.832031-6.238282 16 0 10.664062 7.039063 19.625 16.679688 22.734375 3.222656 18.851563 19.574218 33.265625 39.320312 33.265625h32c19.742188 0 36.09375-14.414062 39.320313-33.265625 9.640625-3.109375 16.679687-12.070313 16.679687-22.734375 0-6.167969-2.410156-11.742188-6.242187-16 3.839843-4.257812 6.242187-9.832031 6.242187-16 0-10.664062-7.039062-19.625-16.679687-22.734375-2.777344-16.234375-15.265625-29.1875-31.320313-32.457031v-112.808594h88v18.128906l9.664063 16.910156c14.605469 25.570313 22.335937 54.648438 22.335937 84.105469 0 15.757813-2.191406 31.421875-6.519531 46.558594l-5.546875 19.386719-19.933594 9.964844v64zm-8-83.054688c0 4.414062-3.585937 8-8 8h-96c-4.417968 0-8-3.585938-8-8s3.582032-8 8-8h96c4.414063 0 8 3.585938 8 8zm-17.472656 24c-3.3125 9.289062-12.113281 16-22.527344 16h-32c-10.417968 0-19.214844-6.710938-22.527344-16zm-86.527344-48c-4.417968 0-8-3.585938-8-8s3.582032-8 8-8h96c4.414063 0 8 3.585938 8 8s-3.585937 8-8 8zm9.472656-32c3.3125-9.289062 12.109376-16 22.527344-16h32c10.414063 0 19.214844 6.710938 22.527344 16zm46.527344-32h-16v-112h16zm120 147.054688v-54.109376l40-20 40 20v54.109376l-40 20zm128 88-40 20-40-20v-54.109376l40-20 40 20zm0 0"/></svg>