<?xml version="1.0" encoding="iso-8859-1"?>
<!-- Generator: Adobe Illustrator 19.0.0, SVG Export Plug-In . SVG Version: 6.00 Build 0)  -->
<svg version="1.1" id="Capa_1" xmlns="http://www.w3.org/2000/svg" xmlns:xlink="http://www.w3.org/1999/xlink" x="0px" y="0px"
	 viewBox="0 0 496 496" style="enable-background:new 0 0 496 496;" xml:space="preserve">
<path style="fill:#FFA64D;" d="M400,168H192c-8.84,0-16,7.16-16,16v80c0,8.84,7.16,16,16,16l0,0c8.84,0,16-7.16,16-16v-16
	c0-8.84,7.16-16,16-16l0,0c8.84,0,16,7.16,16,16v64c0,8.84,7.16,16,16,16l0,0c8.84,0,16-7.16,16-16v-96c0-8.832,7.16-16,16-16l0,0
	c8.832,0,16,7.16,16,16v64c0,8.832,7.168,16,16,16l0,0c8.84,0,16-7.16,16-16v-40v-16v-8c0-8.84,7.16-16,16-16l0,0h48V168z"/>
<g>
	<path style="fill:#333333;" d="M462.784,208H464c13.232,0,24-10.768,24-24s-10.768-24-24-24h-47.728L467.76,43.304
		c3.104-7.04,3.472-14.92,1.04-22.208C464.592,8.48,452.832,0,438.776,0c-12.12,0-23.168,7.144-28.136,18.192L346.824,160H192h-48
		c-13.232,0-24,10.768-24,24s10.768,24,24,24h1.232C123.224,243.088,112,275.336,112,304c0,28.272,6.032,55.368,17.808,80.688
		c-2.136,1.624-4.264,3.296-6.288,5.208C111.296,401.408,104,415.744,104,428.24c0,7.512,2.592,13.92,7.504,18.544
		c4.888,4.616,11.536,6.832,18.984,6.832c8.456,0,17.936-2.92,27.04-8.36C163.728,456.96,173.376,464,184.12,464
		c3.664,0,7.176-0.856,10.48-2.36C226.832,484.056,264.488,496,304,496c105.864,0,192-86.136,192-192
		C496,274.904,485.048,243.368,462.784,208z M425.232,24.76c2.392-5.32,7.704-8.76,14.296-8.76c6.408,0,12.064,4.08,14.096,10.152
		c1.168,3.512,0.984,7.304-0.504,10.696L398.784,160H368h-3.624L425.232,24.76z M136,184c0-4.416,3.584-8,8-8h25.472
		c-0.896,2.512-1.472,5.184-1.472,8v8h-24C139.584,192,136,188.416,136,184z M122.48,435.152c-1.648-1.56-2.48-3.88-2.48-6.912
		c0-6.312,3.808-16.64,14.48-26.704c9.832-9.256,21.16-13.832,29.096-13.832c3.408,0,6.184,0.832,7.96,2.504
		c1.64,1.552,2.48,3.88,2.48,6.912c0,8.056-5.552,18.28-14.488,26.704C145.48,437.072,128.392,440.728,122.48,435.152z M166.648,368
		c0-8.824,7.832-16,17.464-16s17.472,7.176,17.472,16c0,1.416-0.216,2.792-0.6,4.128c-5.992,0.608-11.4,2.592-15.488,6.448
		c-0.568,0.528-0.992,1.168-1.496,1.744c-0.504-0.576-0.928-1.216-1.496-1.744c-4.04-3.808-9.352-5.784-15.248-6.424
		C166.864,370.808,166.648,369.424,166.648,368z M208.472,423.832c-8.928-8.424-14.488-18.648-14.488-26.704
		c0-3.032,0.832-5.36,2.48-6.912c1.776-1.672,4.552-2.504,7.96-2.504c7.936,0,19.264,4.568,29.096,13.832
		C244.192,411.6,248,421.928,248,428.24c0,3.032-0.832,5.352-2.48,6.904C239.6,440.728,222.52,437.072,208.472,423.832z
		 M170.48,435.496c0.008-0.008,0.016-0.016,0.024-0.016c5.648-5.32,10.192-11.256,13.504-17.328c3.312,6.072,7.848,12,13.504,17.328
		c0.056,0.048,0.112,0.096,0.16,0.144C194.296,443.16,189.184,448,184.12,448C178.992,448,173.856,443.2,170.48,435.496z M304,480
		c-34.784,0-68.008-10.112-96.76-29.104c1.24-1.696,2.376-3.536,3.424-5.52c9.048,5.368,18.44,8.24,26.84,8.24
		c7.448,0,14.096-2.208,18.984-6.832c4.92-4.616,7.512-11.032,7.512-18.544c0-12.496-7.296-26.832-19.52-38.344
		c-8.568-8.08-18.224-13.416-27.52-16.096c0.368-1.912,0.624-3.84,0.624-5.8c0-10.64-5.512-20.008-13.888-25.832l12.416-17.552
		l-13.064-9.232l-14.864,21.008c-1.344-0.16-2.672-0.392-4.064-0.392s-2.712,0.232-4.064,0.392l-14.872-21.016l-13.064,9.248
		l12.416,17.544c-8.376,5.824-13.888,15.192-13.888,25.832c0,1.936,0.248,3.848,0.608,5.744c-2.528,0.72-5.064,1.64-7.624,2.776
		C133.288,353.728,128,329.384,128,304c0-27.848,12.288-60.144,36.328-96H168v56c0,13.232,10.768,24,24,24s24-10.768,24-24v-16
		c0-4.416,3.584-8,8-8s8,3.584,8,8v64c0,13.232,10.768,24,24,24s24-10.768,24-24v-96c0-4.416,3.584-8,8-8s8,3.584,8,8v64
		c0,13.232,10.768,24,24,24s24-10.768,24-24v-40h-16v40c0,4.416-3.584,8-8,8s-8-3.584-8-8v-64c0-13.232-10.768-24-24-24
		s-24,10.768-24,24v96c0,4.416-3.584,8-8,8s-8-3.584-8-8v-64c0-13.232-10.768-24-24-24s-24,10.768-24,24v16c0,4.416-3.584,8-8,8
		s-8-3.584-8-8v-80c0-4.416,3.584-8,8-8h160h16h96c4.416,0,8,3.584,8,8s-3.584,8-8,8H352c-13.232,0-24,10.768-24,24v8h16v-8
		c0-4.416,3.584-8,8-8h91.68c24.352,36.288,36.32,67.752,36.32,96C480,401.048,401.048,480,304,480z"/>
	<path style="fill:#333333;" d="M133.504,149.616c7.448,0,14.096-2.208,18.984-6.832c4.92-4.616,7.512-11.032,7.512-18.544
		c0-12.496-7.296-26.832-19.52-38.344c-8.568-8.072-18.224-13.416-27.52-16.096c0.368-1.912,0.624-3.84,0.624-5.8
		c0-10.64-5.512-20.008-13.888-25.832l12.416-17.552l-13.064-9.232L84.184,32.392C82.84,32.232,81.512,32,80.12,32
		s-2.712,0.232-4.064,0.392L61.184,11.376L48.12,20.624l12.416,17.544C52.16,43.992,46.648,53.36,46.648,64
		c0,1.936,0.248,3.848,0.608,5.736c-9.368,2.656-19.104,8.024-27.744,16.16C7.296,97.408,0,111.744,0,124.24
		c0,7.512,2.592,13.92,7.504,18.544c4.888,4.616,11.536,6.832,18.984,6.832c8.456,0,17.936-2.92,27.04-8.36
		C59.728,152.96,69.376,160,80.12,160c10.792,0,20.368-6.976,26.552-18.624C115.712,146.744,125.112,149.616,133.504,149.616z
		 M144,124.24c0,3.032-0.832,5.352-2.48,6.904c-5.928,5.568-23.008,1.92-37.056-11.312c-8.928-8.424-14.488-18.648-14.488-26.704
		c0-3.032,0.832-5.36,2.48-6.912c1.776-1.672,4.552-2.504,7.96-2.504c7.936,0,19.264,4.568,29.096,13.832
		C140.192,107.6,144,117.928,144,124.24z M97.584,64c0,1.416-0.216,2.792-0.6,4.12c-5.992,0.608-11.4,2.6-15.496,6.456
		c-0.568,0.528-0.992,1.168-1.496,1.744c-0.504-0.576-0.928-1.216-1.496-1.744c-4.04-3.808-9.352-5.792-15.248-6.432
		c-0.384-1.336-0.6-2.72-0.6-4.144c0-8.824,7.832-16,17.464-16C89.752,48,97.584,55.176,97.584,64z M18.48,131.152
		c-1.648-1.56-2.48-3.88-2.48-6.912c0-6.312,3.808-16.64,14.48-26.704c9.832-9.256,21.16-13.832,29.096-13.832
		c3.408,0,6.184,0.832,7.96,2.504c1.64,1.552,2.48,3.88,2.48,6.912c0,8.056-5.552,18.28-14.488,26.704
		C41.496,133.072,24.384,136.72,18.48,131.152z M80.12,144c-5.128,0-10.264-4.8-13.64-12.504c0.008-0.008,0.016-0.016,0.024-0.016
		c5.648-5.32,10.192-11.256,13.504-17.328c3.312,6.072,7.848,12,13.504,17.328c0.056,0.048,0.112,0.096,0.16,0.144
		C90.296,139.16,85.184,144,80.12,144z"/>
	<rect x="360" y="224" style="fill:#333333;" width="16" height="16"/>
	<rect x="360" y="256" style="fill:#333333;" width="16" height="64"/>
</g>
<g>
</g>
<g>
</g>
<g>
</g>
<g>
</g>
<g>
</g>
<g>
</g>
<g>
</g>
<g>
</g>
<g>
</g>
<g>
</g>
<g>
</g>
<g>
</g>
<g>
</g>
<g>
</g>
<g>
</g>
</svg>
