<svg height="496pt" viewBox="0 0 496 496" width="496pt" xmlns="http://www.w3.org/2000/svg"><g fill="#f0bc5e"><path d="m384 328h56v128h-56zm0 0"/><path d="m264 40h56v112h-56zm0 0"/><path d="m176 40h56v112h-56zm0 0"/><path d="m96 336h96v32h-96zm0 0"/><path d="m96 400h96v32h-96zm0 0"/></g><path d="m496 32v-16c0-8.824219-7.175781-16-16-16h-464c-8.824219 0-16 7.175781-16 16v16c0 8.824219 7.175781 16 16 16v240c-8.824219 0-16 7.175781-16 16v16c0 8.824219 7.175781 16 16 16v112c-8.824219 0-16 7.175781-16 16v16c0 8.824219 7.175781 16 16 16h464c8.824219 0 16-7.175781 16-16v-16c0-8.824219-7.175781-16-16-16v-112c8.824219 0 16-7.175781 16-16v-16c0-8.824219-7.175781-16-16-16v-240c8.824219 0 16-7.175781 16-16zm-480-16h464l.007812 16h-464.007812zm256 128v-96h160v96zm-48-96v96h-160v-96zm16 0h16v96h-16zm-192 0v96h-16v-96zm-16 288h16v112h-16zm240 112v-112h160v112zm-16 0h-16v-112h16zm-192-48h160v48h-160zm160-16h-160v-48h160zm256.007812 96h-464.007812v-16h464zm-16.007812-32h-16v-112h16zm16.007812-128h-464.007812v-16h464zm-48.007812-32v-24h16v-16h-48v16h16v24h-32v-80c0-17.648438-14.351562-32-32-32s-32 14.351562-32 32v8h16v-8c0-8.824219 7.175781-16 16-16s16 7.175781 16 16v48h-16v16h16v16h-336v-128h432v128zm32-144h-16v-96h16zm0 0"/><path d="m400 368h16v48h-16zm0 0"/><path d="m288 80h16v32h-16zm0 0"/><path d="m192 80h16v32h-16zm0 0"/></svg>